<?xml version="1.0" encoding="utf-8"?>
<!-- Generator: Adobe Illustrator 16.0.0, SVG Export Plug-In . SVG Version: 6.00 Build 0)  -->
<!DOCTYPE svg PUBLIC "-//W3C//DTD SVG 1.1//EN" "http://www.w3.org/Graphics/SVG/1.1/DTD/svg11.dtd">
<svg version="1.1" id="Layer_1" xmlns="http://www.w3.org/2000/svg" xmlns:xlink="http://www.w3.org/1999/xlink" x="0px" y="0px"
	 width="539px" height="539.191px" viewBox="28.14 79.254 539 539.191" enable-background="new 28.14 79.254 539 539.191"
	 xml:space="preserve">
<path d="M184.537,225.693c-4.763,6.548-10.716,11.905-16.668,17.858c-16.668,17.858-11.906,27.383-11.906,27.383
	s-16.668-7.144-24.406-25.002c-6.548-16.072-7.738-43.456,8.93-63.695c4.762-6.548,10.715-11.906,16.667-17.858
	c16.668-17.858,11.906-27.383,11.906-27.383s16.668,7.144,24.406,25.002C200.014,178.071,201.204,206.049,184.537,225.693z
	 M323.832,486.426c-9.524-20.835-31.55-29.169-31.55-29.169s5.953,10.716-15.478,32.146c-7.738,7.144-15.477,13.691-22.025,21.43
	c-22.025,23.216-20.239,55.957-11.905,75.006c9.524,20.835,31.55,29.169,31.55,29.169s-5.953-10.716,15.478-32.146
	c7.738-7.144,15.477-13.691,22.025-21.43C333.952,538.215,332.761,505.475,323.832,486.426z M517.894,354.273
	c0,1.191,0,1.786,0,2.977c0.595,10.12-0.596,19.645-1.786,29.764c-11.905,110.126-83.935,198.228-176.203,220.253
	c1.19-0.595,2.977-1.19,4.167-2.381c42.265-25.597,66.076-64.29,76.791-104.174c-20.835,5.357-44.646-3.572-58.337-23.216
	c-26.192-38.099-16.668-65.481,1.19-105.365c24.406-54.766-42.86-114.293-42.86-114.293s27.383,63.1-39.884,111.913
	c-32.145,23.216-54.17,61.313-60.123,88.102c-30.954-29.169-15.478-50.599-15.478-50.599s-35.121,18.454-47.622,55.957
	c-9.524,29.764-7.738,75.601,20.835,110.722c-63.1-45.241-105.96-126.794-105.96-219.062c0-35.717,6.548-67.267,19.049-94.65
	c-0.596,4.762-0.596,8.929-0.596,13.691c0,49.409,34.526,89.292,76.792,89.292c42.265,0,83.935-40.479,76.791-89.292
	c-3.572-26.192-7.739-36.312-7.739-62.504c0-22.025,7.739-42.86,15.478-58.933c25.598-48.813,70.243-73.219,70.243-73.219
	s-10.715,42.86,34.526,89.887c18.453-17.263,33.931-25.597,33.931-25.597s-14.287,35.122,58.933,89.887
	c41.074,30.955,61.909,72.029,66.672,113.104C517.298,348.916,517.894,351.297,517.894,354.273z M450.031,386.419
	c-3.571-4.167-7.738-8.334-11.905-12.501c-11.311-12.501-8.334-19.049-8.334-19.049s-11.905,4.762-17.264,17.263
	c-4.762,11.31-5.357,30.359,6.549,44.646c3.571,4.167,7.738,8.334,11.905,12.501c11.311,12.501,8.334,19.049,8.334,19.049
	s11.905-4.763,17.263-17.264C460.746,419.754,461.342,400.706,450.031,386.419z"/>
</svg>
