<?xml version="1.0" encoding="utf-8"?>
<!-- Generator: Adobe Illustrator 16.0.0, SVG Export Plug-In . SVG Version: 6.00 Build 0)  -->
<!DOCTYPE svg PUBLIC "-//W3C//DTD SVG 1.1//EN" "http://www.w3.org/Graphics/SVG/1.1/DTD/svg11.dtd">
<svg version="1.1"
	 id="Layer_1" xmlns:dc="http://purl.org/dc/elements/1.1/" xmlns:cc="http://creativecommons.org/ns#" xmlns:rdf="http://www.w3.org/1999/02/22-rdf-syntax-ns#" xmlns:svg="http://www.w3.org/2000/svg"
	 xmlns="http://www.w3.org/2000/svg" xmlns:xlink="http://www.w3.org/1999/xlink" x="0px" y="0px" width="595.279px" height="192px"
	 viewBox="0 250.445 595.279 192" enable-background="new 0 250.445 595.279 192" xml:space="preserve">
<g transform="translate(0,-1002.3622)">
	<rect x="10.901" y="1344.431" fill="#FFFFFF" width="2.469" height="8.93"/>
	<rect x="16.01" y="1327.937" fill="#FFFFFF" width="2.469" height="41.919"/>
	<rect x="21.118" y="1335.957" fill="#FFFFFF" width="2.469" height="25.882"/>
	<rect x="26.227" y="1313.134" fill="#FFFFFF" width="2.47" height="71.525"/>
	<rect x="31.336" y="1298.021" fill="#FFFFFF" width="2.469" height="101.749"/>
	<rect x="36.445" y="1322.693" fill="#FFFFFF" width="2.47" height="52.405"/>
	<rect x="41.554" y="1337.189" fill="#FFFFFF" width="2.469" height="23.414"/>
	<rect x="46.662" y="1342.742" fill="#FFFFFF" width="2.47" height="12.312"/>
	<rect x="51.772" y="1323.003" fill="#FFFFFF" width="2.469" height="51.788"/>
	<rect x="56.88" y="1302.341" fill="#FFFFFF" width="2.469" height="93.113"/>
	<rect x="61.99" y="1325.47" fill="#FFFFFF" width="2.469" height="46.854"/>
	<rect x="67.098" y="1338.116" fill="#FFFFFF" width="2.469" height="21.564"/>
	<rect x="72.207" y="1327.012" fill="#FFFFFF" width="2.469" height="43.77"/>
	<rect x="77.316" y="1337.806" fill="#FFFFFF" width="2.469" height="22.182"/>
	<rect x="82.424" y="1335.032" fill="#FFFFFF" width="2.47" height="27.732"/>
	<rect x="87.533" y="1340.583" fill="#FFFFFF" width="2.469" height="16.63"/>
	<rect x="92.642" y="1332.255" fill="#FFFFFF" width="2.47" height="33.284"/>
	<rect x="97.751" y="1313.134" fill="#FFFFFF" width="2.469" height="71.525"/>
	<rect x="102.86" y="1286.612" fill="#FFFFFF" width="2.469" height="124.571"/>
	<rect x="107.969" y="1269.958" fill="#FFFFFF" width="2.469" height="157.879"/>
	<rect x="113.077" y="1277.361" fill="#FFFFFF" width="2.469" height="143.075"/>
	<rect x="118.187" y="1296.79" fill="#FFFFFF" width="2.469" height="104.216"/>
	<rect x="123.295" y="1313.134" fill="#FFFFFF" width="2.469" height="71.525"/>
	<rect x="128.405" y="1290.929" fill="#FFFFFF" width="2.469" height="115.937"/>
	<rect x="133.513" y="1306.66" fill="#FFFFFF" width="2.469" height="84.479"/>
	<rect x="138.621" y="1275.201" fill="#FFFFFF" width="2.47" height="147.394"/>
	<rect x="143.731" y="1294.323" fill="#FFFFFF" width="2.469" height="109.151"/>
	<rect x="148.839" y="1313.134" fill="#FFFFFF" width="2.469" height="71.525"/>
	<rect x="153.948" y="1328.864" fill="#FFFFFF" width="2.469" height="40.069"/>
	<rect x="159.057" y="1298.949" fill="#FFFFFF" width="2.469" height="99.898"/>
	<rect x="164.166" y="1306.041" fill="#FFFFFF" width="2.469" height="85.713"/>
	<rect x="169.275" y="1327.322" fill="#FFFFFF" width="2.469" height="43.153"/>
	<rect x="174.384" y="1332.255" fill="#FFFFFF" width="2.469" height="33.284"/>
	<rect x="179.492" y="1339.041" fill="#FFFFFF" width="2.469" height="19.714"/>
	<rect x="184.601" y="1325.777" fill="#FFFFFF" width="2.47" height="46.237"/>
	<rect x="189.71" y="1290.31" fill="#FFFFFF" width="2.469" height="117.17"/>
	<rect x="194.819" y="1302.957" fill="#FFFFFF" width="2.47" height="91.881"/>
	<rect x="199.928" y="1340.891" fill="#FFFFFF" width="2.469" height="16.014"/>
	<rect x="210.146" y="1313.134" fill="#FFFFFF" width="2.469" height="71.525"/>
	<rect x="205.036" y="1329.789" fill="#FFFFFF" width="2.47" height="38.218"/>
	<rect x="220.364" y="1331.638" fill="#FFFFFF" width="2.469" height="34.518"/>
	<rect x="225.472" y="1339.658" fill="#FFFFFF" width="2.469" height="18.48"/>
	<rect x="215.254" y="1330.713" fill="#FFFFFF" width="2.469" height="36.368"/>
	<rect x="230.581" y="1330.096" fill="#FFFFFF" width="2.469" height="37.602"/>
	<rect x="235.69" y="1322.386" fill="#FFFFFF" width="2.469" height="53.021"/>
	<rect x="240.799" y="1327.012" fill="#FFFFFF" width="2.469" height="43.77"/>
	<rect x="245.907" y="1321.151" fill="#FFFFFF" width="2.469" height="55.489"/>
	<rect x="251.016" y="1336.881" fill="#FFFFFF" width="2.47" height="24.032"/>
	<rect x="256.125" y="1341.2" fill="#FFFFFF" width="2.469" height="15.396"/>
	<rect x="261.234" y="1344.898" fill="#FFFFFF" width="2.47" height="7.995"/>
	<rect x="266.343" y="1340.273" fill="#FFFFFF" width="2.469" height="17.246"/>
	<rect x="271.451" y="1324.235" fill="#FFFFFF" width="2.47" height="49.321"/>
	<rect x="281.669" y="1332.873" fill="#FFFFFF" width="2.469" height="32.05"/>
	<rect x="276.561" y="1338.116" fill="#FFFFFF" width="2.469" height="21.564"/>
	<rect x="291.887" y="1297.097" fill="#FFFFFF" width="2.469" height="103.6"/>
	<rect x="296.996" y="1317.453" fill="#FFFFFF" width="2.469" height="62.891"/>
	<rect x="286.779" y="1290.004" fill="#FFFFFF" width="2.469" height="117.786"/>
	<rect x="302.105" y="1330.096" fill="#FFFFFF" width="2.469" height="37.602"/>
	<rect x="307.213" y="1313.134" fill="#FFFFFF" width="2.469" height="71.525"/>
	<rect x="312.323" y="1330.096" fill="#FFFFFF" width="2.469" height="37.602"/>
	<rect x="317.431" y="1340.583" fill="#FFFFFF" width="2.469" height="16.63"/>
	<rect x="322.54" y="1329.479" fill="#FFFFFF" width="2.469" height="38.835"/>
	<rect x="327.649" y="1313.134" fill="#FFFFFF" width="2.469" height="71.525"/>
	<rect x="332.758" y="1302.033" fill="#FFFFFF" width="2.469" height="93.73"/>
	<rect x="337.866" y="1293.089" fill="#FFFFFF" width="2.469" height="111.618"/>
	<rect x="342.976" y="1313.134" fill="#FFFFFF" width="2.469" height="71.525"/>
	<rect x="353.193" y="1335.957" fill="#FFFFFF" width="2.47" height="25.882"/>
	<rect x="348.084" y="1328.864" fill="#FFFFFF" width="2.469" height="40.069"/>
	<rect x="363.41" y="1329.479" fill="#FFFFFF" width="2.47" height="38.835"/>
	<rect x="368.52" y="1337.499" fill="#FFFFFF" width="2.469" height="22.798"/>
	<rect x="358.302" y="1331.331" fill="#FFFFFF" width="2.469" height="35.134"/>
	<rect x="373.628" y="1329.789" fill="#FFFFFF" width="2.47" height="38.218"/>
	<rect x="378.738" y="1313.134" fill="#FFFFFF" width="2.469" height="71.525"/>
	<rect x="383.846" y="1301.416" fill="#FFFFFF" width="2.469" height="94.964"/>
	<rect x="388.955" y="1322.386" fill="#FFFFFF" width="2.469" height="53.021"/>
	<rect x="394.064" y="1307.891" fill="#FFFFFF" width="2.469" height="82.012"/>
	<rect x="399.172" y="1327.012" fill="#FFFFFF" width="2.47" height="43.77"/>
	<rect x="404.281" y="1323.621" fill="#FFFFFF" width="2.469" height="50.555"/>
	<rect x="409.39" y="1316.525" fill="#FFFFFF" width="2.47" height="64.741"/>
	<rect x="414.499" y="1313.134" fill="#FFFFFF" width="2.469" height="71.525"/>
	<rect x="424.717" y="1337.189" fill="#FFFFFF" width="2.469" height="23.414"/>
	<rect x="419.608" y="1330.406" fill="#FFFFFF" width="2.469" height="36.984"/>
	<rect x="434.935" y="1341.507" fill="#FFFFFF" width="2.469" height="14.78"/>
	<rect x="440.043" y="1333.797" fill="#FFFFFF" width="2.469" height="30.2"/>
	<rect x="429.825" y="1330.406" fill="#FFFFFF" width="2.469" height="36.984"/>
	<rect x="445.152" y="1340.273" fill="#FFFFFF" width="2.47" height="17.246"/>
	<rect x="450.261" y="1328.554" fill="#FFFFFF" width="2.469" height="40.686"/>
	<rect x="455.369" y="1327.322" fill="#FFFFFF" width="2.47" height="43.153"/>
	<rect x="460.479" y="1318.995" fill="#FFFFFF" width="2.469" height="59.807"/>
	<rect x="465.587" y="1328.554" fill="#FFFFFF" width="2.469" height="40.686"/>
	<rect x="470.697" y="1313.134" fill="#FFFFFF" width="2.469" height="71.525"/>
	<rect x="475.805" y="1292.781" fill="#FFFFFF" width="2.469" height="112.235"/>
	<rect x="480.913" y="1321.151" fill="#FFFFFF" width="2.47" height="55.489"/>
	<rect x="486.023" y="1328.864" fill="#FFFFFF" width="2.469" height="40.069"/>
	<rect x="496.24" y="1329.789" fill="#FFFFFF" width="2.469" height="38.218"/>
	<rect x="491.131" y="1336.264" fill="#FFFFFF" width="2.47" height="25.266"/>
	<rect x="506.458" y="1335.647" fill="#FFFFFF" width="2.469" height="26.499"/>
	<rect x="511.567" y="1339.041" fill="#FFFFFF" width="2.469" height="19.714"/>
	<rect x="501.349" y="1340.891" fill="#FFFFFF" width="2.469" height="16.014"/>
	<rect x="516.675" y="1343.356" fill="#FFFFFF" width="2.47" height="11.079"/>
	<rect x="521.784" y="1271.5" fill="#FFFFFF" width="2.469" height="154.795"/>
	<rect x="526.893" y="1281.058" fill="#FFFFFF" width="2.47" height="135.674"/>
	<rect x="532.002" y="1260.088" fill="#FFFFFF" width="2.469" height="177.617"/>
	<rect x="537.111" y="1273.042" fill="#FFFFFF" width="2.469" height="151.71"/>
	<rect x="542.22" y="1286.92" fill="#FFFFFF" width="2.469" height="123.954"/>
	<rect x="547.328" y="1302.647" fill="#FFFFFF" width="2.469" height="92.497"/>
	<rect x="552.438" y="1321.767" fill="#FFFFFF" width="2.469" height="54.256"/>
	<rect x="557.546" y="1335.647" fill="#FFFFFF" width="2.469" height="26.499"/>
	<rect x="567.764" y="1334.722" fill="#FFFFFF" width="2.469" height="28.35"/>
	<rect x="562.655" y="1330.713" fill="#FFFFFF" width="2.47" height="36.368"/>
	<rect x="577.982" y="1329.479" fill="#FFFFFF" width="2.469" height="38.835"/>
	<rect x="583.09" y="1340.583" fill="#FFFFFF" width="2.469" height="16.63"/>
	<rect x="572.872" y="1340.273" fill="#FFFFFF" width="2.47" height="17.246"/>
</g>
</svg>
